<mxfile host="app.diagrams.net" agent="Mozilla/5.0 (Windows NT 10.0; Win64; x64) AppleWebKit/537.36 (KHTML, like Gecko) Chrome/131.0.0.0 Safari/537.36" version="25.0.1">
  <diagram name="Page-1" id="gwBqWdRqH4DsrLFx4_Vp">
    <mxGraphModel dx="1235" dy="614" grid="1" gridSize="10" guides="1" tooltips="1" connect="1" arrows="1" fold="1" page="1" pageScale="1" pageWidth="850" pageHeight="1100" math="0" shadow="0">
      <root>
        <mxCell id="0" />
        <mxCell id="1" parent="0" />
        <mxCell id="R7Mci7BWQUSW6Ng55u31-2" value="" style="ellipse;html=1;shape=endState;fillColor=#FFFFFF;strokeColor=#000033;strokeWidth=2;shadow=1;" vertex="1" parent="1">
          <mxGeometry x="400" y="400" width="30" height="30" as="geometry" />
        </mxCell>
        <mxCell id="R7Mci7BWQUSW6Ng55u31-5" value="" style="ellipse;whiteSpace=wrap;html=1;aspect=fixed;" vertex="1" parent="1">
          <mxGeometry x="390" y="50" width="30" height="30" as="geometry" />
        </mxCell>
        <mxCell id="R7Mci7BWQUSW6Ng55u31-7" value="" style="endArrow=open;endFill=1;endSize=12;html=1;rounded=0;exitX=0.5;exitY=1;exitDx=0;exitDy=0;entryX=0.5;entryY=0;entryDx=0;entryDy=0;" edge="1" parent="1" source="R7Mci7BWQUSW6Ng55u31-5" target="R7Mci7BWQUSW6Ng55u31-9">
          <mxGeometry width="160" relative="1" as="geometry">
            <mxPoint x="260" y="370" as="sourcePoint" />
            <mxPoint x="405" y="160" as="targetPoint" />
          </mxGeometry>
        </mxCell>
        <mxCell id="R7Mci7BWQUSW6Ng55u31-9" value="Vào nơi kết nối trong discord" style="rounded=1;whiteSpace=wrap;html=1;fontStyle=1;fontSize=14;fillColor=#dae8fc;strokeColor=#000000;opacity=50;strokeWidth=1;perimeterSpacing=0;" vertex="1" parent="1">
          <mxGeometry x="345" y="160" width="120" height="60" as="geometry" />
        </mxCell>
      </root>
    </mxGraphModel>
  </diagram>
</mxfile>
